#tb 0: 1/25
0,          0,          0,        1,   152064, 0xf9c30518
0,          1,          1,        1,   152064, 0x509dd18f
0,          2,          2,        1,   152064, 0x7f5c8f07
0,          3,          3,        1,   152064, 0x8ce42210
0,          4,          4,        1,   152064, 0x59fd527a
0,          5,          5,        1,   152064, 0xd987ceea
0,          6,          6,        1,   152064, 0xc53167fa
0,          7,          7,        1,   152064, 0xb3179926
